<svg width="146" height="146" viewBox="0 0 146 146" fill="none" xmlns="http://www.w3.org/2000/svg">
<g clip-path="url(#clip0_307_12)">
<path d="M99.5239 123.141C103.401 114.703 106.137 104.67 107.505 93.7239C111.382 89.6193 115.031 85.5145 118.223 81.1818C123.012 88.707 125.748 96.0043 126.661 102.161C128.257 102.161 129.853 102.617 131.449 103.302C130.765 95.3202 127.345 86.4266 121.188 77.077C132.59 59.7461 134.87 44.0114 127.117 34.4338C121.416 27.1365 110.926 24.6281 97.4715 26.9086C94.9631 22.3478 91.9987 18.4711 89.0341 15.5066C88.578 17.1029 87.8939 18.6991 87.2098 20.0673C89.2621 22.1197 91.0865 24.8561 92.9108 27.8207C86.5257 29.417 80.1406 31.9254 73.2995 35.3459C66.6864 31.9254 60.0732 29.417 53.6881 27.8207C55.5124 24.8562 57.3368 22.1198 59.3891 20.0673C58.477 18.6991 57.7929 17.1029 57.5648 15.5066C54.3722 18.4711 51.6358 22.3477 49.1274 26.9085C35.6731 24.6281 25.1833 27.3646 19.4823 34.4338C11.729 44.0114 13.7813 59.9741 25.1833 77.3051C19.0263 86.6547 15.6057 95.5482 14.9215 103.53C16.2898 102.845 17.8861 102.617 19.7103 102.389C20.3944 96.0043 23.359 88.9351 28.1478 81.4098C31.3403 85.7425 34.7609 89.8472 38.8656 93.9519C40.2339 104.898 42.9703 114.931 46.8469 123.369C43.1984 123.825 39.7777 124.053 36.8133 123.825C36.3572 125.421 35.6731 126.79 34.761 128.158C36.5852 128.386 38.4095 128.614 40.2339 128.614C42.9703 128.614 45.9348 128.386 49.1274 127.702C55.2843 139.332 63.9498 145.945 73.0714 145.945C82.193 145.945 90.8585 139.332 97.4716 127.474C100.664 127.93 103.629 128.158 106.365 128.158C108.417 128.158 110.242 128.158 111.838 127.702C110.926 126.333 110.242 124.965 109.786 123.369C106.593 123.825 103.173 123.825 99.524 123.141H99.5239ZM94.7351 122.457C89.4902 121.317 83.7893 119.264 77.8602 116.528C83.7893 113.335 89.4902 109.459 94.9631 105.126C97.4715 103.302 99.7519 101.249 101.804 99.1968C100.436 107.862 98.1557 115.616 94.7351 122.457V122.457ZM108.189 86.4266C108.417 83.4621 108.417 80.2697 108.417 77.3051C108.417 74.3406 108.417 71.1481 108.189 68.1835C110.926 71.1481 113.206 74.3406 115.487 77.3051C113.206 80.2696 110.698 83.4621 108.189 86.4266ZM123.24 37.3984C129.169 44.9236 127.345 58.6059 117.995 73.2004C115.031 68.8676 111.382 64.763 107.277 60.6582C105.909 49.7125 103.173 39.6787 99.2959 31.2413C110.47 29.645 118.907 31.6974 123.24 37.3983V37.3984ZM94.7351 32.1534C98.1557 38.7666 100.436 46.7479 102.032 55.4134C99.752 53.361 97.4715 51.3087 95.1912 49.4844C89.7183 45.1516 84.0173 41.275 78.0883 38.0825C83.7893 35.346 89.4902 33.2937 94.7351 32.1534V32.1534ZM92.2267 53.133C96.1033 56.3256 99.7519 59.5181 103.173 62.7106C103.629 67.4994 104.085 72.2883 104.085 77.3051C104.085 82.322 103.857 87.1108 103.173 91.8996C99.752 95.3202 96.1033 98.5127 92.2267 101.477C86.0697 106.266 79.6845 110.599 73.0714 114.019C66.4583 110.599 60.0732 106.266 53.9162 101.477C50.0395 98.5127 46.3909 95.0922 42.9703 91.8996C42.5143 87.1108 42.0582 82.322 42.0582 77.5331C42.0582 72.5163 42.2862 67.7275 42.9703 62.9387C46.3908 59.5181 50.0395 56.3256 53.9162 53.361C60.0732 48.5723 66.4583 44.2394 73.0714 40.8189C79.6845 44.0114 86.0696 48.1162 92.2267 53.133V53.133ZM68.0546 38.0824C62.1256 41.2749 56.4246 45.1516 50.9517 49.4843C48.6713 51.3086 46.1629 53.361 44.1106 55.4133C45.7068 46.7478 47.9871 38.7665 51.1797 32.1533C56.6526 33.2935 62.3536 35.3458 68.0546 38.0824V38.0824ZM22.6748 37.3983C27.0076 31.6973 35.445 29.6449 46.3909 31.2412C42.5143 39.6786 39.7777 49.7123 38.4095 60.4301C34.3049 64.5348 30.8843 68.6395 27.6917 72.9723C18.7983 58.3779 16.7459 44.9236 22.6748 37.3983V37.3983ZM30.6562 77.305C32.9366 74.1125 35.217 71.148 37.9534 68.1834C37.7254 71.148 37.7254 74.3405 37.7254 77.305C37.7254 80.2695 37.9534 83.462 37.9534 86.4266C35.217 83.462 32.9366 80.2696 30.6562 77.305V77.305ZM44.1105 98.9687C46.3909 101.021 48.6713 103.073 50.9516 104.898C56.4246 109.23 62.1256 113.107 68.0546 116.3C62.3536 119.036 56.6526 121.088 51.1797 122.229C47.9871 115.616 45.7068 107.634 44.1105 98.9687V98.9687ZM73.0714 141.384C66.0023 141.384 59.1611 136.139 53.46 126.561C59.8452 124.965 66.2303 122.457 73.0714 119.036C79.9125 122.457 86.2977 124.965 92.6828 126.561C86.9818 136.139 80.1406 141.384 73.0714 141.384H73.0714Z" fill="#FFA500"/>
<path d="M70.6527 100.364V78.1114L55.0116 62.4703C47.4329 71.6614 48.0779 85.2062 56.6241 93.7524C60.494 97.6223 65.4927 100.041 70.6527 100.364ZM89.5186 93.7524C98.0647 85.2062 98.5485 71.5002 91.1311 62.4703L75.4901 78.1114V100.364C80.4887 99.8798 85.4874 97.7836 89.5186 93.7524ZM58.2366 59.2453L73.0714 74.0801L87.9062 59.2453C79.1988 52.1505 66.7827 52.3117 58.2366 59.2453V59.2453ZM73.0714 23.488C79.4565 23.488 84.9295 18.243 84.9295 11.6299C84.9295 5.01686 79.4565 0 73.0714 0C66.6862 0 61.4414 5.24487 61.4414 11.6299C61.4414 18.0149 66.4583 23.4879 73.0714 23.4879L73.0714 23.488ZM125.064 106.95C118.679 106.95 113.206 112.195 113.206 118.808C113.206 125.421 118.451 130.666 125.064 130.666C131.449 130.666 136.694 125.421 136.694 118.808C136.694 112.195 131.677 106.95 125.064 106.95ZM21.0786 106.95C14.4654 106.95 9.22058 112.195 9.22058 118.58C9.22058 124.965 14.4654 130.438 21.0786 130.438C27.6917 130.438 32.7086 125.193 32.7086 118.58C32.7086 111.967 27.4637 106.95 21.0786 106.95V106.95Z" fill="#FFA500"/>
</g>
<defs>
<clipPath id="clip0_307_12">
<rect width="146" height="146" fill="white"/>
</clipPath>
</defs>
</svg>
